<?xml version="1.0" encoding="UTF-8" standalone="no"?>
<svg
   xmlns:dc="http://purl.org/dc/elements/1.1/"
   xmlns:cc="http://creativecommons.org/ns#"
   xmlns:rdf="http://www.w3.org/1999/02/22-rdf-syntax-ns#"
   xmlns:svg="http://www.w3.org/2000/svg"
   xmlns="http://www.w3.org/2000/svg"
   xmlns:sodipodi="http://sodipodi.sourceforge.net/DTD/sodipodi-0.dtd"
   xmlns:inkscape="http://www.inkscape.org/namespaces/inkscape"
   sodipodi:docname="icon.svg"
   inkscape:version="1.0.2 (e86c870879, 2021-01-15)"
   id="svg8"
   version="1.1"
   viewBox="0 0 67.733332 67.733335"
   height="256"
   width="256">
  <g
     id="g933"
     transform="translate(0,79.375017)">
    <path
       id="path929"
       style="display:inline;fill:#666666;fill-opacity:1;stroke-width:0.0282222;stroke-miterlimit:4;stroke-dasharray:none;paint-order:stroke fill markers"
       d="M 5.705669,8.6769939 C 2.544985,8.6769939 0,11.221981 0,14.382668 v 13.646706 14.514345 13.64678 c 0,3.16071 2.544985,5.7057 5.705669,5.7057 h 56.321993 c 3.16069,0 5.70567,-2.54499 5.70567,-5.7057 V 42.543719 28.029374 14.382668 c 0,-3.160687 -2.54498,-5.7056741 -5.70567,-5.7056741 z" />
    <path
       id="rect1168"
       style="display:inline;fill:#b3b3b3;fill-opacity:1;stroke-width:0.0282222;stroke-miterlimit:4;stroke-dasharray:none;paint-order:stroke fill markers"
       d="M 5.705669,6.5603271 C 2.544985,6.5603271 0,9.1053132 0,12.266 v 13.646706 14.514345 13.64678 c 0,3.16071 2.544985,5.7057 5.705669,5.7057 h 56.321993 c 3.16069,0 5.70567,-2.54499 5.70567,-5.7057 V 40.427051 25.912706 12.266 c 0,-3.1606868 -2.54498,-5.7056729 -5.70567,-5.7056729 z" />
  </g>
  <defs
     id="defs2" />
  <sodipodi:namedview
     inkscape:window-maximized="1"
     inkscape:window-y="0"
     inkscape:window-x="0"
     inkscape:window-height="1016"
     inkscape:window-width="1836"
     units="px"
     showgrid="false"
     inkscape:document-rotation="0"
     inkscape:current-layer="svg8"
     inkscape:document-units="px"
     inkscape:cy="165.08051"
     inkscape:cx="119.56906"
     inkscape:zoom="1.4142136"
     inkscape:pageshadow="2"
     inkscape:pageopacity="0"
     borderopacity="1.0"
     bordercolor="#666666"
     pagecolor="#8f8f8f"
     id="base" />
  <metadata
     id="metadata5">
    <rdf:RDF>
      <cc:Work
         rdf:about="">
        <dc:format>image/svg+xml</dc:format>
        <dc:type
           rdf:resource="http://purl.org/dc/dcmitype/StillImage" />
        <dc:title></dc:title>
      </cc:Work>
    </rdf:RDF>
  </metadata>
  <g
     id="g877"
     transform="matrix(0.7676006,0,0,0.7676024,26.994819,3.5162549)"
     style="opacity:0.35">
    <path
       id="rect1199"
       style="display:inline;fill:#ffffff;fill-opacity:1;stroke-width:1.40974"
       d="m 118.37891,30.888672 v 0.002 A 27.002493,27.002461 0 0 0 91.375,57.892578 27.002493,27.002461 0 0 0 91.3789,58.185547 H 91.375 v 92.714843 a 40.503749,40.5037 0 0 0 -13.5,30.19141 40.503749,40.5037 0 0 0 40.50391,40.50195 40.503749,40.5037 0 0 0 40.50195,-40.50195 40.503749,40.5037 0 0 0 -13.5,-30.1875 v -17.06836 h 17.24023 a 4.5266453,4.6410387 0 0 0 0.004,0 4.5266453,4.6410387 0 0 0 4.52539,-4.64063 4.5266453,4.6410387 0 0 0 -4.52539,-4.64062 4.5266453,4.6410387 0 0 0 -0.004,0 h -17.24023 v -5.0625 h 10.78125 a 2.5271645,2.5314805 0 0 0 0.0273,0 2.5271645,2.5314805 0 0 0 2.52735,-2.53125 2.5271645,2.5314805 0 0 0 -2.52735,-2.53321 2.5271645,2.5314805 0 0 0 -0.0273,0 h -10.78125 v -5.0625 h 10.78125 a 2.5271862,2.5314805 0 0 0 0.0273,0 2.5271862,2.5314805 0 0 0 2.52735,-2.53125 2.5271862,2.5314805 0 0 0 -2.52735,-2.53125 2.5271862,2.5314805 0 0 0 -0.0273,0 h -10.78125 v -5.062496 h 10.78125 a 2.5271784,2.5314805 0 0 0 0.0273,0 2.5271784,2.5314805 0 0 0 2.52735,-2.53125 2.5271784,2.5314805 0 0 0 -2.52735,-2.533203 2.5271784,2.5314805 0 0 0 -0.0273,0 h -10.78125 v -5.0625 h 10.78125 a 2.5271784,2.5314805 0 0 0 0.0273,0 2.5271784,2.5314805 0 0 0 2.52735,-2.53125 2.5271784,2.5314805 0 0 0 -2.52735,-2.53125 2.5271784,2.5314805 0 0 0 -0.0273,0 h -10.78125 v -5.0625 h 17.24023 a 4.5266453,4.6410387 0 0 0 0.004,0 4.5266453,4.6410387 0 0 0 4.52539,-4.640625 4.5266453,4.6410387 0 0 0 -4.52539,-4.642578 4.5266453,4.6410387 0 0 0 -0.004,0 h -17.24023 v -6.75 h 10.78125 a 2.5271779,2.5314805 0 0 0 0.0273,0 2.5271779,2.5314805 0 0 0 2.52735,-2.53125 2.5271779,2.5314805 0 0 0 -2.52735,-2.53125 2.5271779,2.5314805 0 0 0 -0.0273,0 H 145.38086 A 27.002493,27.002461 0 0 0 118.37891,30.888672 Z M 118.26953,43.125 h 0.004 a 14.766986,14.766968 0 0 1 0.10547,0 14.766986,14.766968 0 0 1 14.75195,14.154297 h 0.0156 v 0.503906 a 14.766986,14.766968 0 0 1 0,0.109375 v 99.591802 a 27.84632,27.846287 0 0 1 13.08008,23.60742 27.84632,27.846287 0 0 1 -27.84765,27.8457 27.84632,27.846287 0 0 1 -27.845707,-27.8457 27.84632,27.846287 0 0 1 13.080077,-23.60742 V 58 a 14.766986,14.766968 0 0 1 0,-0.107422 v -0.613281 h 0.0156 A 14.766986,14.766968 0 0 1 118.26953,43.125 Z"
       transform="scale(0.26458333)" />
    <path
       d="m 31.308772,22.349995 a 2.7907858,2.7907824 0 0 0 -2.778675,2.790766 2.7907858,2.7907824 0 0 0 4.59e-4,0.05681 h -4.59e-4 v 17.122026 a 6.2513586,6.2513512 0 0 0 -3.460583,5.594069 6.2513586,6.2513512 0 0 0 6.251352,6.251342 6.2513586,6.2513512 0 0 0 6.251355,-6.251342 6.2513586,6.2513512 0 0 0 -3.460597,-5.593616 V 25.197618 h -0.0011 a 2.7907858,2.7907824 0 0 0 0.0011,-0.05681 2.7907858,2.7907824 0 0 0 -2.790758,-2.790768 2.7907858,2.7907824 0 0 0 -0.0121,0 z"
       inkscape:transform-center-y="137.99282"
       inkscape:transform-center-x="-40.35941"
       style="display:inline;fill:#00a3ff;fill-opacity:1;stroke-width:0.390699"
       id="path64-3-5" />
  </g>
  <path
     style="color:#000000;font-style:normal;font-variant:normal;font-weight:normal;font-stretch:normal;font-size:medium;line-height:normal;font-family:sans-serif;font-variant-ligatures:normal;font-variant-position:normal;font-variant-caps:normal;font-variant-numeric:normal;font-variant-alternates:normal;font-variant-east-asian:normal;font-feature-settings:normal;font-variation-settings:normal;text-indent:0;text-align:start;text-decoration:none;text-decoration-line:none;text-decoration-style:solid;text-decoration-color:#000000;letter-spacing:normal;word-spacing:normal;text-transform:none;writing-mode:lr-tb;direction:ltr;text-orientation:mixed;dominant-baseline:auto;baseline-shift:baseline;text-anchor:start;white-space:normal;shape-padding:0;shape-margin:0;inline-size:0;clip-rule:nonzero;display:inline;overflow:visible;visibility:visible;opacity:1;isolation:auto;mix-blend-mode:normal;color-interpolation:sRGB;color-interpolation-filters:linearRGB;solid-color:#000000;solid-opacity:1;vector-effect:none;fill:#00ff00;fill-opacity:1;fill-rule:nonzero;stroke:#ffffff;stroke-width:0.913706;stroke-linecap:round;stroke-linejoin:miter;stroke-miterlimit:4;stroke-dasharray:none;stroke-dashoffset:0;stroke-opacity:1;color-rendering:auto;image-rendering:auto;shape-rendering:auto;text-rendering:auto;enable-background:accumulate;stop-color:#000000;stop-opacity:1"
     d="m 60.001065,19.569684 a 1.8131344,1.8131344 0 0 0 -1.681076,1.201023 c -0.603278,1.683437 -1.404678,5.235723 -3.055203,8.565989 -0.825262,1.665134 -1.840304,3.200531 -2.983819,4.26158 -1.143515,1.061049 -2.341273,1.659221 -3.840418,1.700706 h 0.07852 c -4.483788,-0.06702 -7.184311,0.761759 -9.442219,0.967244 -2.257907,0.205483 -4.291816,-0.0063 -8.548143,-2.225374 l -0.06246,-0.03212 -0.06424,-0.02677 c -3.428594,-1.464464 -6.982933,0.02619 -10.041838,1.763167 -3.058905,1.736981 -5.932259,3.928353 -7.770066,4.805877 a 1.8131344,1.8131344 0 0 0 -0.856599,2.416322 1.8131344,1.8131344 0 0 0 2.418107,0.854815 c 2.520623,-1.203558 5.261583,-3.368508 8.000278,-4.92366 2.738694,-1.555151 5.16387,-2.292882 6.826023,-1.582923 l -0.124921,-0.05889 c 4.638861,2.418513 7.757144,2.874137 10.552227,2.619766 2.795083,-0.254372 5.047436,-1.011137 9.058534,-0.951182 h 0.03926 l 0.03926,-0.0018 c 2.473918,-0.06846 4.586554,-1.164447 6.204988,-2.666164 1.618434,-1.501717 2.816876,-3.39694 3.765466,-5.310913 1.897181,-3.827947 2.891023,-8.030193 3.221169,-8.951459 a 1.8131344,1.8131344 0 0 0 -1.095733,-2.319955 1.8131344,1.8131344 0 0 0 -0.637095,-0.105291 z"
     id="path847" />
  <path
     style="color:#000000;font-style:normal;font-variant:normal;font-weight:normal;font-stretch:normal;font-size:medium;line-height:normal;font-family:sans-serif;font-variant-ligatures:normal;font-variant-position:normal;font-variant-caps:normal;font-variant-numeric:normal;font-variant-alternates:normal;font-variant-east-asian:normal;font-feature-settings:normal;font-variation-settings:normal;text-indent:0;text-align:start;text-decoration:none;text-decoration-line:none;text-decoration-style:solid;text-decoration-color:#000000;letter-spacing:normal;word-spacing:normal;text-transform:none;writing-mode:lr-tb;direction:ltr;text-orientation:mixed;dominant-baseline:auto;baseline-shift:baseline;text-anchor:start;white-space:normal;shape-padding:0;shape-margin:0;inline-size:0;clip-rule:nonzero;display:inline;overflow:visible;visibility:visible;opacity:1;isolation:auto;mix-blend-mode:normal;color-interpolation:sRGB;color-interpolation-filters:linearRGB;solid-color:#000000;solid-opacity:1;vector-effect:none;fill:#ff0000;fill-opacity:1;fill-rule:nonzero;stroke:#ffffff;stroke-width:0.913706;stroke-linecap:round;stroke-linejoin:miter;stroke-miterlimit:4;stroke-dasharray:none;stroke-dashoffset:0;stroke-opacity:1;color-rendering:auto;image-rendering:auto;shape-rendering:auto;text-rendering:auto;enable-background:accumulate;stop-color:#000000;stop-opacity:1"
     d="m 48.379873,28.308778 c -2.75659,-0.03017 -4.978418,1.460697 -6.661842,3.262214 -1.689531,1.808052 -3.019202,3.993736 -4.311548,5.928378 -1.292346,1.934643 -2.56633,3.586983 -3.70836,4.356162 -1.142029,0.76918 -1.941046,0.973234 -3.711928,0.04997 l -0.06246,-0.03213 -0.06424,-0.02677 C 28.22677,41.149212 25.144417,37.591221 22.308932,34.363854 20.891189,32.75017 19.479525,31.223296 17.9492,30.129042 17.184038,29.581915 16.377827,29.131069 15.456141,28.901251 14.534453,28.671432 13.457555,28.712748 12.513365,29.163584 a 1.8131344,1.8131344 0 0 0 -0.854813,2.418108 1.8131344,1.8131344 0 0 0 2.416323,0.854814 c 0.145417,-0.06943 0.222409,-0.08831 0.505035,-0.01785 0.282628,0.07047 0.732292,0.283021 1.259915,0.660296 1.055246,0.75455 2.379746,2.126945 3.744051,3.679806 2.714195,3.089312 5.368338,6.895331 8.799769,8.389316 2.653425,1.350923 5.387225,1.02969 7.339982,-0.285533 1.971072,-1.327556 3.356237,-3.338567 4.698802,-5.34839 1.342566,-2.009822 2.622215,-4.049834 3.94571,-5.466172 1.323493,-1.416338 2.509808,-2.138589 3.986753,-2.116513 h 0.03926 l 0.03748,-0.0018 c 3.517809,-0.09735 5.620737,1.080319 7.388166,2.462722 0.883714,0.691201 1.655416,1.441916 2.441307,2.13079 0.785891,0.688872 1.582331,1.389663 2.800008,1.681075 a 1.8131344,1.8131344 0 0 0 2.184327,-1.340221 1.8131344,1.8131344 0 0 0 -1.340221,-2.186111 c -0.08177,-0.01957 -0.580257,-0.292088 -1.252776,-0.881583 -0.672518,-0.589497 -1.525064,-1.421589 -2.59835,-2.261066 -2.138189,-1.672394 -5.273145,-3.334637 -9.674214,-3.226521 z"
     id="path849" />
  <path
     style="color:#000000;font-style:normal;font-variant:normal;font-weight:normal;font-stretch:normal;font-size:medium;line-height:normal;font-family:sans-serif;font-variant-ligatures:normal;font-variant-position:normal;font-variant-caps:normal;font-variant-numeric:normal;font-variant-alternates:normal;font-variant-east-asian:normal;font-feature-settings:normal;font-variation-settings:normal;text-indent:0;text-align:start;text-decoration:none;text-decoration-line:none;text-decoration-style:solid;text-decoration-color:#000000;letter-spacing:normal;word-spacing:normal;text-transform:none;writing-mode:lr-tb;direction:ltr;text-orientation:mixed;dominant-baseline:auto;baseline-shift:baseline;text-anchor:start;white-space:normal;shape-padding:0;shape-margin:0;inline-size:0;clip-rule:nonzero;display:inline;overflow:visible;visibility:visible;opacity:1;isolation:auto;mix-blend-mode:normal;color-interpolation:sRGB;color-interpolation-filters:linearRGB;solid-color:#000000;solid-opacity:1;vector-effect:none;fill:#0000ff;fill-opacity:1;fill-rule:nonzero;stroke:#ffffff;stroke-width:0.913706;stroke-linecap:round;stroke-linejoin:miter;stroke-miterlimit:4;stroke-dasharray:none;stroke-dashoffset:0;stroke-opacity:1;color-rendering:auto;image-rendering:auto;shape-rendering:auto;text-rendering:auto;enable-background:accumulate;stop-color:#000000;stop-opacity:1"
     d="m 42.783426,18.093836 c -4.728302,-0.163176 -7.997385,1.67241 -10.518321,2.882098 -2.520936,1.209689 -3.988065,1.890679 -6.834945,0.583558 -2.748575,-1.261984 -4.832642,-2.225746 -7.022327,-2.59478 -2.189683,-0.369035 -4.405142,-0.0017 -6.808177,1.145701 a 1.8131344,1.8131344 0 0 0 -0.854814,2.418107 1.8131344,1.8131344 0 0 0 2.418107,0.854815 c 1.955396,-0.933672 3.14501,-1.094565 4.641695,-0.842324 1.496687,0.252243 3.380416,1.058545 6.112191,2.312818 3.917518,1.798696 7.227304,0.682087 9.916917,-0.608542 2.689613,-1.290629 5.062276,-2.656812 8.824753,-2.526967 6.946861,0.239739 12.434585,4.241679 18.449,4.513206 a 1.8131344,1.8131344 0 0 0 1.893441,-1.729259 1.8131344,1.8131344 0 0 0 -1.731044,-1.893441 c -4.24784,-0.191773 -10.319005,-4.233127 -18.486476,-4.51499 z"
     id="path851" />
  <rect
     style="fill:#4d4d4d;stroke:#ffffff;stroke-width:2.05025;stroke-linecap:round;stroke-linejoin:round;stroke-miterlimit:4;stroke-dasharray:none;paint-order:stroke markers fill"
     id="rect853"
     width="2.7847815"
     height="44.365993"
     x="8.1050758"
     y="12.023462" />
  <rect
     style="fill:#4d4d4d;stroke:#ffffff;stroke-width:2.24215;stroke-linecap:round;stroke-linejoin:round;stroke-miterlimit:4;stroke-dasharray:none;paint-order:stroke markers fill"
     id="rect855"
     width="2.59288"
     height="56.986912"
     x="-52.425491"
     y="4.1637807"
     transform="rotate(-90)" />
  <g
     inkscape:label="Graphic"
     id="g1156"
     style="display:inline"
     transform="translate(7.6100135,-67.396972)" />
</svg>
